<svg xmlns="http://www.w3.org/2000/svg" width="400" height="350">
  <defs>
    <marker id="arrow" viewBox="0 0 10 10" refX="10" refY="5" markerWidth="8" markerHeight="8" orient="auto">
      <path d="M0,0 L10,5 L0,10 Z" fill="#e74c3c"/>
    </marker>
    <marker id="arrowBack" viewBox="0 0 10 10" refX="0" refY="5" markerWidth="8" markerHeight="8" orient="auto">
      <path d="M10,0 L0,5 L10,10 Z" fill="#e74c3c"/>
    </marker>
    <marker id="dot" viewBox="0 0 10 10" refX="5" refY="5" markerWidth="6" markerHeight="6">
      <circle cx="5" cy="5" r="4" fill="#3498db"/>
    </marker>
    <marker id="square" viewBox="0 0 10 10" refX="5" refY="5" markerWidth="6" markerHeight="6">
      <rect width="10" height="10" fill="#2ecc71"/>
    </marker>
    <marker id="arrowPurple" viewBox="0 0 10 10" refX="10" refY="5" markerWidth="8" markerHeight="8" orient="auto">
      <path d="M0,0 L10,5 L0,10 Z" fill="#8e44ad"/>
    </marker>
  </defs>
  <rect width="400" height="350" fill="#f5f6fa"/>
  <!-- Arrow markers on line -->
  <line x1="40" y1="40" x2="360" y2="40" stroke="#e74c3c" stroke-width="2" marker-start="url(#arrowBack)" marker-end="url(#arrow)"/>
  <!-- Arrow markers on polyline -->
  <polyline points="40,90 130,60 220,100 310,70 360,90" fill="none" stroke="#e74c3c" stroke-width="2" marker-mid="url(#arrow)" marker-end="url(#arrow)"/>
  <!-- Dot markers on cubic curve -->
  <path d="M40,150 C100,100 180,200 250,150 S360,100 360,150" fill="none" stroke="#3498db" stroke-width="2" marker-start="url(#dot)" marker-mid="url(#dot)" marker-end="url(#dot)"/>
  <!-- Arrow markers on cubic curve (orient=auto follows tangent) -->
  <path d="M40,220 C100,170 180,270 250,220 S360,170 360,220" fill="none" stroke="#8e44ad" stroke-width="2" marker-start="url(#arrowPurple)" marker-mid="url(#arrowPurple)" marker-end="url(#arrowPurple)"/>
  <!-- Square markers on line path -->
  <path d="M40,300 L130,270 220,310 310,280 360,300" fill="none" stroke="#2ecc71" stroke-width="2" marker-start="url(#square)" marker-mid="url(#square)" marker-end="url(#square)"/>
</svg>
