<?xml version="1.0" encoding="UTF-8"?>
<svg xmlns="http://www.w3.org/2000/svg" width="760" height="3132" viewBox="0 0 760 3132">
  <style>
    text { font-family: -apple-system, BlinkMacSystemFont, "Segoe UI", Helvetica, Arial, sans-serif; }
  </style>
  <rect width="760" height="3132" rx="16" fill="#0f172a"/>

  <text x="380" y="40" text-anchor="middle" font-size="20" font-weight="600" font-style="italic" fill="#f1f5f9">PNG Output File Sizes (bytes)</text>
  <text x="380" y="60" text-anchor="middle" font-size="13" font-style="italic" fill="#64748b">lower is better — JairoSVG vs EchoSVG vs JSVG vs CairoSVG</text>

  <rect x="60" y="75" width="12" height="12" rx="3" fill="#4ade80"/>
  <text x="78" y="86" font-size="12" fill="#94a3b8">JairoSVG (Java)</text>
  <rect x="220" y="75" width="12" height="12" rx="3" fill="#f87171"/>
  <text x="238" y="86" font-size="12" fill="#94a3b8">EchoSVG (Java)</text>
  <rect x="390" y="75" width="12" height="12" rx="3" fill="#60a5fa"/>
  <text x="408" y="86" font-size="12" fill="#94a3b8">JSVG (Java)</text>
  <rect x="540" y="75" width="12" height="12" rx="3" fill="#fb923c"/>
  <text x="558" y="86" font-size="12" fill="#94a3b8">CairoSVG (Python)</text>

  <line x1="30" y1="102" x2="730" y2="102" stroke="#1e293b" stroke-width="1"/>

  <text x="152" y="140" text-anchor="end" font-size="11" font-weight="500" fill="#94a3b8">Basic shapes</text>
  <rect x="160" y="112" width="43" height="12" rx="4" fill="#4ade80"/>
  <text x="700" y="122" text-anchor="end" font-size="10" fill="#4ade80">6,718</text>
  <text x="720" y="122" text-anchor="middle" font-size="10" fill="#4ade80">◄</text>
  <rect x="160" y="125" width="52" height="12" rx="4" fill="#f87171"/>
  <text x="700" y="135" text-anchor="end" font-size="10" fill="#f87171">8,159</text>
  <rect x="160" y="138" width="45" height="12" rx="4" fill="#60a5fa"/>
  <text x="700" y="148" text-anchor="end" font-size="10" fill="#60a5fa">7,031</text>
  <rect x="160" y="151" width="57" height="12" rx="4" fill="#fb923c"/>
  <text x="700" y="161" text-anchor="end" font-size="10" fill="#fb923c">8,920</text>

  <text x="152" y="210" text-anchor="end" font-size="11" font-weight="500" fill="#94a3b8">Gradients</text>
  <rect x="160" y="182" width="164" height="12" rx="4" fill="#4ade80"/>
  <text x="700" y="192" text-anchor="end" font-size="10" fill="#4ade80">25,554</text>
  <rect x="160" y="195" width="161" height="12" rx="4" fill="#f87171"/>
  <text x="700" y="205" text-anchor="end" font-size="10" fill="#f87171">25,018</text>
  <rect x="160" y="208" width="170" height="12" rx="4" fill="#60a5fa"/>
  <text x="700" y="218" text-anchor="end" font-size="10" fill="#60a5fa">26,410</text>
  <rect x="160" y="221" width="152" height="12" rx="4" fill="#fb923c"/>
  <text x="700" y="231" text-anchor="end" font-size="10" fill="#fb923c">23,637</text>
  <text x="720" y="231" text-anchor="middle" font-size="10" fill="#fb923c">◄</text>

  <text x="152" y="280" text-anchor="end" font-size="11" font-weight="500" fill="#94a3b8">Complex paths</text>
  <rect x="160" y="252" width="81" height="12" rx="4" fill="#4ade80"/>
  <text x="700" y="262" text-anchor="end" font-size="10" fill="#4ade80">12,657</text>
  <text x="720" y="262" text-anchor="middle" font-size="10" fill="#4ade80">◄</text>
  <rect x="160" y="265" width="109" height="12" rx="4" fill="#f87171"/>
  <text x="700" y="275" text-anchor="end" font-size="10" fill="#f87171">16,936</text>
  <rect x="160" y="278" width="82" height="12" rx="4" fill="#60a5fa"/>
  <text x="700" y="288" text-anchor="end" font-size="10" fill="#60a5fa">12,730</text>
  <rect x="160" y="291" width="100" height="12" rx="4" fill="#fb923c"/>
  <text x="700" y="301" text-anchor="end" font-size="10" fill="#fb923c">15,633</text>

  <text x="152" y="350" text-anchor="end" font-size="11" font-weight="500" fill="#94a3b8">Text rendering</text>
  <rect x="160" y="322" width="85" height="12" rx="4" fill="#4ade80"/>
  <text x="700" y="332" text-anchor="end" font-size="10" fill="#4ade80">13,276</text>
  <text x="720" y="332" text-anchor="middle" font-size="10" fill="#4ade80">◄</text>
  <rect x="160" y="335" width="123" height="12" rx="4" fill="#f87171"/>
  <text x="700" y="345" text-anchor="end" font-size="10" fill="#f87171">19,125</text>
  <rect x="160" y="348" width="100" height="12" rx="4" fill="#60a5fa"/>
  <text x="700" y="358" text-anchor="end" font-size="10" fill="#60a5fa">15,626</text>
  <rect x="160" y="361" width="105" height="12" rx="4" fill="#fb923c"/>
  <text x="700" y="371" text-anchor="end" font-size="10" fill="#fb923c">16,321</text>

  <text x="152" y="420" text-anchor="end" font-size="11" font-weight="500" fill="#94a3b8">Transforms</text>
  <rect x="160" y="392" width="35" height="12" rx="4" fill="#4ade80"/>
  <text x="700" y="402" text-anchor="end" font-size="10" fill="#4ade80">5,461</text>
  <rect x="160" y="405" width="33" height="12" rx="4" fill="#f87171"/>
  <text x="700" y="415" text-anchor="end" font-size="10" fill="#f87171">5,261</text>
  <text x="720" y="415" text-anchor="middle" font-size="10" fill="#f87171">◄</text>
  <rect x="160" y="418" width="37" height="12" rx="4" fill="#60a5fa"/>
  <text x="700" y="428" text-anchor="end" font-size="10" fill="#60a5fa">5,827</text>
  <rect x="160" y="431" width="38" height="12" rx="4" fill="#fb923c"/>
  <text x="700" y="441" text-anchor="end" font-size="10" fill="#fb923c">6,001</text>

  <text x="152" y="490" text-anchor="end" font-size="11" font-weight="500" fill="#94a3b8">Stroke styles</text>
  <rect x="160" y="462" width="21" height="12" rx="4" fill="#4ade80"/>
  <text x="700" y="472" text-anchor="end" font-size="10" fill="#4ade80">3,363</text>
  <text x="720" y="472" text-anchor="middle" font-size="10" fill="#4ade80">◄</text>
  <rect x="160" y="475" width="32" height="12" rx="4" fill="#f87171"/>
  <text x="700" y="485" text-anchor="end" font-size="10" fill="#f87171">5,038</text>
  <rect x="160" y="488" width="26" height="12" rx="4" fill="#60a5fa"/>
  <text x="700" y="498" text-anchor="end" font-size="10" fill="#60a5fa">4,074</text>
  <rect x="160" y="501" width="28" height="12" rx="4" fill="#fb923c"/>
  <text x="700" y="511" text-anchor="end" font-size="10" fill="#fb923c">4,478</text>

  <text x="152" y="560" text-anchor="end" font-size="11" font-weight="500" fill="#94a3b8">Opacity blend</text>
  <rect x="160" y="532" width="54" height="12" rx="4" fill="#4ade80"/>
  <text x="700" y="542" text-anchor="end" font-size="10" fill="#4ade80">8,409</text>
  <text x="720" y="542" text-anchor="middle" font-size="10" fill="#4ade80">◄</text>
  <rect x="160" y="545" width="65" height="12" rx="4" fill="#f87171"/>
  <text x="700" y="555" text-anchor="end" font-size="10" fill="#f87171">10,201</text>
  <rect x="160" y="558" width="56" height="12" rx="4" fill="#60a5fa"/>
  <text x="700" y="568" text-anchor="end" font-size="10" fill="#60a5fa">8,788</text>
  <rect x="160" y="571" width="63" height="12" rx="4" fill="#fb923c"/>
  <text x="700" y="581" text-anchor="end" font-size="10" fill="#fb923c">9,853</text>

  <text x="152" y="630" text-anchor="end" font-size="11" font-weight="500" fill="#94a3b8">Viewbox aspect</text>
  <rect x="160" y="602" width="67" height="12" rx="4" fill="#4ade80"/>
  <text x="700" y="612" text-anchor="end" font-size="10" fill="#4ade80">10,492</text>
  <text x="720" y="612" text-anchor="middle" font-size="10" fill="#4ade80">◄</text>
  <rect x="160" y="615" width="82" height="12" rx="4" fill="#f87171"/>
  <text x="700" y="625" text-anchor="end" font-size="10" fill="#f87171">12,769</text>
  <rect x="160" y="628" width="78" height="12" rx="4" fill="#60a5fa"/>
  <text x="700" y="638" text-anchor="end" font-size="10" fill="#60a5fa">12,147</text>
  <rect x="160" y="641" width="73" height="12" rx="4" fill="#fb923c"/>
  <text x="700" y="651" text-anchor="end" font-size="10" fill="#fb923c">11,444</text>

  <text x="152" y="700" text-anchor="end" font-size="11" font-weight="500" fill="#94a3b8">Css styling</text>
  <rect x="160" y="672" width="49" height="12" rx="4" fill="#4ade80"/>
  <text x="700" y="682" text-anchor="end" font-size="10" fill="#4ade80">7,755</text>
  <text x="720" y="682" text-anchor="middle" font-size="10" fill="#4ade80">◄</text>
  <rect x="160" y="685" width="71" height="12" rx="4" fill="#f87171"/>
  <text x="700" y="695" text-anchor="end" font-size="10" fill="#f87171">11,144</text>
  <rect x="160" y="698" width="55" height="12" rx="4" fill="#60a5fa"/>
  <text x="700" y="708" text-anchor="end" font-size="10" fill="#60a5fa">8,653</text>
  <rect x="160" y="711" width="69" height="12" rx="4" fill="#fb923c"/>
  <text x="700" y="721" text-anchor="end" font-size="10" fill="#fb923c">10,818</text>

  <text x="152" y="770" text-anchor="end" font-size="11" font-weight="500" fill="#94a3b8">Use and defs</text>
  <rect x="160" y="742" width="35" height="12" rx="4" fill="#4ade80"/>
  <text x="700" y="752" text-anchor="end" font-size="10" fill="#4ade80">5,448</text>
  <text x="720" y="752" text-anchor="middle" font-size="10" fill="#4ade80">◄</text>
  <rect x="160" y="755" width="39" height="12" rx="4" fill="#f87171"/>
  <text x="700" y="765" text-anchor="end" font-size="10" fill="#f87171">6,122</text>
  <rect x="160" y="768" width="39" height="12" rx="4" fill="#60a5fa"/>
  <text x="700" y="778" text-anchor="end" font-size="10" fill="#60a5fa">6,144</text>
  <rect x="160" y="781" width="62" height="12" rx="4" fill="#fb923c"/>
  <text x="700" y="791" text-anchor="end" font-size="10" fill="#fb923c">9,712</text>

  <text x="152" y="840" text-anchor="end" font-size="11" font-weight="500" fill="#94a3b8">Star polygon</text>
  <rect x="160" y="812" width="40" height="12" rx="4" fill="#4ade80"/>
  <text x="700" y="822" text-anchor="end" font-size="10" fill="#4ade80">6,228</text>
  <text x="720" y="822" text-anchor="middle" font-size="10" fill="#4ade80">◄</text>
  <rect x="160" y="825" width="57" height="12" rx="4" fill="#f87171"/>
  <text x="700" y="835" text-anchor="end" font-size="10" fill="#f87171">8,862</text>
  <rect x="160" y="838" width="41" height="12" rx="4" fill="#60a5fa"/>
  <text x="700" y="848" text-anchor="end" font-size="10" fill="#60a5fa">6,455</text>
  <rect x="160" y="851" width="57" height="12" rx="4" fill="#fb923c"/>
  <text x="700" y="861" text-anchor="end" font-size="10" fill="#fb923c">8,911</text>

  <text x="152" y="910" text-anchor="end" font-size="11" font-weight="500" fill="#94a3b8">Nested svg</text>
  <rect x="160" y="882" width="70" height="12" rx="4" fill="#4ade80"/>
  <text x="700" y="892" text-anchor="end" font-size="10" fill="#4ade80">10,926</text>
  <text x="720" y="892" text-anchor="middle" font-size="10" fill="#4ade80">◄</text>
  <rect x="160" y="895" width="80" height="12" rx="4" fill="#f87171"/>
  <text x="700" y="905" text-anchor="end" font-size="10" fill="#f87171">12,522</text>
  <rect x="160" y="908" width="77" height="12" rx="4" fill="#60a5fa"/>
  <text x="700" y="918" text-anchor="end" font-size="10" fill="#60a5fa">12,101</text>
  <rect x="160" y="921" width="76" height="12" rx="4" fill="#fb923c"/>
  <text x="700" y="931" text-anchor="end" font-size="10" fill="#fb923c">11,879</text>

  <text x="152" y="980" text-anchor="end" font-size="11" font-weight="500" fill="#94a3b8">Patterns</text>
  <rect x="160" y="952" width="61" height="12" rx="4" fill="#4ade80"/>
  <text x="700" y="962" text-anchor="end" font-size="10" fill="#4ade80">9,532</text>
  <text x="720" y="962" text-anchor="middle" font-size="10" fill="#4ade80">◄</text>
  <rect x="160" y="965" width="76" height="12" rx="4" fill="#f87171"/>
  <text x="700" y="975" text-anchor="end" font-size="10" fill="#f87171">11,832</text>
  <rect x="160" y="978" width="71" height="12" rx="4" fill="#60a5fa"/>
  <text x="700" y="988" text-anchor="end" font-size="10" fill="#60a5fa">11,043</text>
  <rect x="160" y="991" width="71" height="12" rx="4" fill="#fb923c"/>
  <text x="700" y="1001" text-anchor="end" font-size="10" fill="#fb923c">11,096</text>

  <text x="152" y="1050" text-anchor="end" font-size="11" font-weight="500" fill="#94a3b8">Clip paths</text>
  <rect x="160" y="1022" width="60" height="12" rx="4" fill="#4ade80"/>
  <text x="700" y="1032" text-anchor="end" font-size="10" fill="#4ade80">9,342</text>
  <text x="720" y="1032" text-anchor="middle" font-size="10" fill="#4ade80">◄</text>
  <rect x="160" y="1035" width="68" height="12" rx="4" fill="#f87171"/>
  <text x="700" y="1045" text-anchor="end" font-size="10" fill="#f87171">10,558</text>
  <rect x="160" y="1048" width="66" height="12" rx="4" fill="#60a5fa"/>
  <text x="700" y="1058" text-anchor="end" font-size="10" fill="#60a5fa">10,253</text>
  <rect x="160" y="1061" width="87" height="12" rx="4" fill="#fb923c"/>
  <text x="700" y="1071" text-anchor="end" font-size="10" fill="#fb923c">13,552</text>

  <text x="152" y="1120" text-anchor="end" font-size="11" font-weight="500" fill="#94a3b8">Masks</text>
  <rect x="160" y="1092" width="36" height="12" rx="4" fill="#4ade80"/>
  <text x="700" y="1102" text-anchor="end" font-size="10" fill="#4ade80">5,692</text>
  <rect x="160" y="1105" width="35" height="12" rx="4" fill="#f87171"/>
  <text x="700" y="1115" text-anchor="end" font-size="10" fill="#f87171">5,566</text>
  <rect x="160" y="1118" width="40" height="12" rx="4" fill="#60a5fa"/>
  <text x="700" y="1128" text-anchor="end" font-size="10" fill="#60a5fa">6,209</text>
  <rect x="160" y="1131" width="7" height="12" rx="4" fill="#fb923c"/>
  <text x="700" y="1141" text-anchor="end" font-size="10" fill="#fb923c">1,161</text>
  <text x="720" y="1141" text-anchor="middle" font-size="10" fill="#fb923c">◄</text>

  <text x="152" y="1190" text-anchor="end" font-size="11" font-weight="500" fill="#94a3b8">Markers</text>
  <rect x="160" y="1162" width="63" height="12" rx="4" fill="#4ade80"/>
  <text x="700" y="1172" text-anchor="end" font-size="10" fill="#4ade80">9,796</text>
  <text x="720" y="1172" text-anchor="middle" font-size="10" fill="#4ade80">◄</text>
  <rect x="160" y="1175" width="81" height="12" rx="4" fill="#f87171"/>
  <text x="700" y="1185" text-anchor="end" font-size="10" fill="#f87171">12,642</text>
  <rect x="160" y="1188" width="64" height="12" rx="4" fill="#60a5fa"/>
  <text x="700" y="1198" text-anchor="end" font-size="10" fill="#60a5fa">10,041</text>
  <rect x="160" y="1201" width="81" height="12" rx="4" fill="#fb923c"/>
  <text x="700" y="1211" text-anchor="end" font-size="10" fill="#fb923c">12,655</text>

  <text x="152" y="1260" text-anchor="end" font-size="11" font-weight="500" fill="#94a3b8">Filters</text>
  <rect x="160" y="1232" width="186" height="12" rx="4" fill="#4ade80"/>
  <text x="700" y="1242" text-anchor="end" font-size="10" fill="#4ade80">28,934</text>
  <rect x="160" y="1245" width="155" height="12" rx="4" fill="#f87171"/>
  <text x="700" y="1255" text-anchor="end" font-size="10" fill="#f87171">24,063</text>
  <rect x="160" y="1258" width="208" height="12" rx="4" fill="#60a5fa"/>
  <text x="700" y="1268" text-anchor="end" font-size="10" fill="#60a5fa">32,346</text>
  <rect x="160" y="1271" width="54" height="12" rx="4" fill="#fb923c"/>
  <text x="700" y="1281" text-anchor="end" font-size="10" fill="#fb923c">8,519</text>
  <text x="720" y="1281" text-anchor="middle" font-size="10" fill="#fb923c">◄</text>

  <text x="152" y="1330" text-anchor="end" font-size="11" font-weight="500" fill="#94a3b8">Embedded image</text>
  <rect x="160" y="1302" width="60" height="12" rx="4" fill="#4ade80"/>
  <text x="700" y="1312" text-anchor="end" font-size="10" fill="#4ade80">9,432</text>
  <text x="720" y="1312" text-anchor="middle" font-size="10" fill="#4ade80">◄</text>
  <rect x="160" y="1315" width="77" height="12" rx="4" fill="#f87171"/>
  <text x="700" y="1325" text-anchor="end" font-size="10" fill="#f87171">11,994</text>
  <rect x="160" y="1328" width="75" height="12" rx="4" fill="#60a5fa"/>
  <text x="700" y="1338" text-anchor="end" font-size="10" fill="#60a5fa">11,642</text>
  <rect x="160" y="1341" width="136" height="12" rx="4" fill="#fb923c"/>
  <text x="700" y="1351" text-anchor="end" font-size="10" fill="#fb923c">21,204</text>

  <text x="152" y="1400" text-anchor="end" font-size="11" font-weight="500" fill="#94a3b8">Text advanced</text>
  <rect x="160" y="1372" width="121" height="12" rx="4" fill="#4ade80"/>
  <text x="700" y="1382" text-anchor="end" font-size="10" fill="#4ade80">18,801</text>
  <text x="720" y="1382" text-anchor="middle" font-size="10" fill="#4ade80">◄</text>
  <rect x="160" y="1385" width="169" height="12" rx="4" fill="#f87171"/>
  <text x="700" y="1395" text-anchor="end" font-size="10" fill="#f87171">26,256</text>
  <rect x="160" y="1398" width="127" height="12" rx="4" fill="#60a5fa"/>
  <text x="700" y="1408" text-anchor="end" font-size="10" fill="#60a5fa">19,756</text>
  <rect x="160" y="1411" width="153" height="12" rx="4" fill="#fb923c"/>
  <text x="700" y="1421" text-anchor="end" font-size="10" fill="#fb923c">23,861</text>

  <text x="152" y="1470" text-anchor="end" font-size="11" font-weight="500" fill="#94a3b8">Fe blend modes</text>
  <rect x="160" y="1442" width="77" height="12" rx="4" fill="#4ade80"/>
  <text x="700" y="1452" text-anchor="end" font-size="10" fill="#4ade80">12,005</text>
  <text x="720" y="1452" text-anchor="middle" font-size="10" fill="#4ade80">◄</text>
  <rect x="160" y="1455" width="104" height="12" rx="4" fill="#f87171"/>
  <text x="700" y="1465" text-anchor="end" font-size="10" fill="#f87171">16,216</text>
  <rect x="160" y="1468" width="101" height="12" rx="4" fill="#60a5fa"/>
  <text x="700" y="1478" text-anchor="end" font-size="10" fill="#60a5fa">15,773</text>
  <rect x="160" y="1481" width="80" height="12" rx="4" fill="#fb923c"/>
  <text x="700" y="1491" text-anchor="end" font-size="10" fill="#fb923c">12,504</text>

  <text x="152" y="1540" text-anchor="end" font-size="11" font-weight="500" fill="#94a3b8">Fe tile</text>
  <rect x="160" y="1512" width="9" height="12" rx="4" fill="#4ade80"/>
  <text x="700" y="1522" text-anchor="end" font-size="10" fill="#4ade80">1,456</text>
  <text x="720" y="1522" text-anchor="middle" font-size="10" fill="#4ade80">◄</text>
  <rect x="160" y="1525" width="12" height="12" rx="4" fill="#f87171"/>
  <text x="700" y="1535" text-anchor="end" font-size="10" fill="#f87171">2,009</text>
  <rect x="160" y="1538" width="9" height="12" rx="4" fill="#60a5fa"/>
  <text x="700" y="1548" text-anchor="end" font-size="10" fill="#60a5fa">1,489</text>
  <rect x="160" y="1551" width="11" height="12" rx="4" fill="#fb923c"/>
  <text x="700" y="1561" text-anchor="end" font-size="10" fill="#fb923c">1,768</text>

  <text x="152" y="1610" text-anchor="end" font-size="11" font-weight="500" fill="#94a3b8">Feimage data uri</text>
  <rect x="160" y="1582" width="16" height="12" rx="4" fill="#4ade80"/>
  <text x="700" y="1592" text-anchor="end" font-size="10" fill="#4ade80">2,633</text>
  <text x="720" y="1592" text-anchor="middle" font-size="10" fill="#4ade80">◄</text>
  <rect x="160" y="1595" width="28" height="12" rx="4" fill="#f87171"/>
  <text x="700" y="1605" text-anchor="end" font-size="10" fill="#f87171">4,406</text>
  <rect x="160" y="1608" width="23" height="12" rx="4" fill="#60a5fa"/>
  <text x="700" y="1618" text-anchor="end" font-size="10" fill="#60a5fa">3,639</text>
  <rect x="160" y="1621" width="20" height="12" rx="4" fill="#fb923c"/>
  <text x="700" y="1631" text-anchor="end" font-size="10" fill="#fb923c">3,206</text>

  <text x="152" y="1680" text-anchor="end" font-size="11" font-weight="500" fill="#94a3b8">Feimage inline ref</text>
  <rect x="160" y="1652" width="17" height="12" rx="4" fill="#4ade80"/>
  <text x="700" y="1662" text-anchor="end" font-size="10" fill="#4ade80">2,702</text>
  <text x="720" y="1662" text-anchor="middle" font-size="10" fill="#4ade80">◄</text>
  <rect x="160" y="1665" width="23" height="12" rx="4" fill="#f87171"/>
  <text x="700" y="1675" text-anchor="end" font-size="10" fill="#f87171">3,642</text>
  <rect x="160" y="1678" width="28" height="12" rx="4" fill="#60a5fa"/>
  <text x="700" y="1688" text-anchor="end" font-size="10" fill="#60a5fa">4,380</text>
  <rect x="160" y="1691" width="31" height="12" rx="4" fill="#fb923c"/>
  <text x="700" y="1701" text-anchor="end" font-size="10" fill="#fb923c">4,902</text>

  <text x="152" y="1750" text-anchor="end" font-size="11" font-weight="500" fill="#94a3b8">Localized masks</text>
  <rect x="160" y="1722" width="118" height="12" rx="4" fill="#4ade80"/>
  <text x="700" y="1732" text-anchor="end" font-size="10" fill="#4ade80">18,389</text>
  <rect x="160" y="1735" width="115" height="12" rx="4" fill="#f87171"/>
  <text x="700" y="1745" text-anchor="end" font-size="10" fill="#f87171">17,868</text>
  <rect x="160" y="1748" width="130" height="12" rx="4" fill="#60a5fa"/>
  <text x="700" y="1758" text-anchor="end" font-size="10" fill="#60a5fa">20,239</text>
  <rect x="160" y="1761" width="85" height="12" rx="4" fill="#fb923c"/>
  <text x="700" y="1771" text-anchor="end" font-size="10" fill="#fb923c">13,218</text>
  <text x="720" y="1771" text-anchor="middle" font-size="10" fill="#fb923c">◄</text>

  <text x="152" y="1820" text-anchor="end" font-size="11" font-weight="500" fill="#94a3b8">Svg fonts</text>
  <rect x="160" y="1792" width="66" height="12" rx="4" fill="#4ade80"/>
  <text x="700" y="1802" text-anchor="end" font-size="10" fill="#4ade80">10,331</text>
  <text x="720" y="1802" text-anchor="middle" font-size="10" fill="#4ade80">◄</text>
  <rect x="160" y="1805" width="91" height="12" rx="4" fill="#f87171"/>
  <text x="700" y="1815" text-anchor="end" font-size="10" fill="#f87171">14,274</text>
  <rect x="160" y="1818" width="81" height="12" rx="4" fill="#60a5fa"/>
  <text x="700" y="1828" text-anchor="end" font-size="10" fill="#60a5fa">12,607</text>
  <rect x="160" y="1831" width="98" height="12" rx="4" fill="#fb923c"/>
  <text x="700" y="1841" text-anchor="end" font-size="10" fill="#fb923c">15,228</text>

  <text x="152" y="1890" text-anchor="end" font-size="11" font-weight="500" fill="#94a3b8">Symbol use</text>
  <rect x="160" y="1862" width="100" height="12" rx="4" fill="#4ade80"/>
  <text x="700" y="1872" text-anchor="end" font-size="10" fill="#4ade80">15,665</text>
  <text x="720" y="1872" text-anchor="middle" font-size="10" fill="#4ade80">◄</text>
  <rect x="160" y="1875" width="157" height="12" rx="4" fill="#f87171"/>
  <text x="700" y="1885" text-anchor="end" font-size="10" fill="#f87171">24,513</text>
  <rect x="160" y="1888" width="117" height="12" rx="4" fill="#60a5fa"/>
  <text x="700" y="1898" text-anchor="end" font-size="10" fill="#60a5fa">18,260</text>
  <rect x="160" y="1901" width="139" height="12" rx="4" fill="#fb923c"/>
  <text x="700" y="1911" text-anchor="end" font-size="10" fill="#fb923c">21,624</text>

  <text x="152" y="1960" text-anchor="end" font-size="11" font-weight="500" fill="#94a3b8">Switch features</text>
  <rect x="160" y="1932" width="74" height="12" rx="4" fill="#4ade80"/>
  <text x="700" y="1942" text-anchor="end" font-size="10" fill="#4ade80">11,535</text>
  <rect x="160" y="1945" width="116" height="12" rx="4" fill="#f87171"/>
  <text x="700" y="1955" text-anchor="end" font-size="10" fill="#f87171">18,040</text>
  <rect x="160" y="1958" width="54" height="12" rx="4" fill="#60a5fa"/>
  <text x="700" y="1968" text-anchor="end" font-size="10" fill="#60a5fa">8,503</text>
  <text x="720" y="1968" text-anchor="middle" font-size="10" fill="#60a5fa">◄</text>
  <rect x="160" y="1971" width="93" height="12" rx="4" fill="#fb923c"/>
  <text x="700" y="1981" text-anchor="end" font-size="10" fill="#fb923c">14,491</text>

  <text x="152" y="2030" text-anchor="end" font-size="11" font-weight="500" fill="#94a3b8">Css variables</text>
  <rect x="160" y="2002" width="74" height="12" rx="4" fill="#4ade80"/>
  <text x="700" y="2012" text-anchor="end" font-size="10" fill="#4ade80">11,574</text>
  <text x="720" y="2012" text-anchor="middle" font-size="10" fill="#4ade80">◄</text>
  <rect x="160" y="2015" width="109" height="12" rx="4" fill="#f87171"/>
  <text x="700" y="2025" text-anchor="end" font-size="10" fill="#f87171">17,016</text>
  <rect x="160" y="2028" width="80" height="12" rx="4" fill="#60a5fa"/>
  <text x="700" y="2038" text-anchor="end" font-size="10" fill="#60a5fa">12,509</text>

  <text x="152" y="2100" text-anchor="end" font-size="11" font-weight="500" fill="#94a3b8">Current color</text>
  <rect x="160" y="2072" width="64" height="12" rx="4" fill="#4ade80"/>
  <text x="700" y="2082" text-anchor="end" font-size="10" fill="#4ade80">10,037</text>
  <text x="720" y="2082" text-anchor="middle" font-size="10" fill="#4ade80">◄</text>
  <rect x="160" y="2085" width="94" height="12" rx="4" fill="#f87171"/>
  <text x="700" y="2095" text-anchor="end" font-size="10" fill="#f87171">14,642</text>
  <rect x="160" y="2098" width="83" height="12" rx="4" fill="#60a5fa"/>
  <text x="700" y="2108" text-anchor="end" font-size="10" fill="#60a5fa">13,030</text>
  <rect x="160" y="2111" width="70" height="12" rx="4" fill="#fb923c"/>
  <text x="700" y="2121" text-anchor="end" font-size="10" fill="#fb923c">11,006</text>

  <text x="152" y="2170" text-anchor="end" font-size="11" font-weight="500" fill="#94a3b8">Display visibility</text>
  <rect x="160" y="2142" width="70" height="12" rx="4" fill="#4ade80"/>
  <text x="700" y="2152" text-anchor="end" font-size="10" fill="#4ade80">11,009</text>
  <text x="720" y="2152" text-anchor="middle" font-size="10" fill="#4ade80">◄</text>
  <rect x="160" y="2155" width="112" height="12" rx="4" fill="#f87171"/>
  <text x="700" y="2165" text-anchor="end" font-size="10" fill="#f87171">17,473</text>
  <rect x="160" y="2168" width="91" height="12" rx="4" fill="#60a5fa"/>
  <text x="700" y="2178" text-anchor="end" font-size="10" fill="#60a5fa">14,263</text>
  <rect x="160" y="2181" width="85" height="12" rx="4" fill="#fb923c"/>
  <text x="700" y="2191" text-anchor="end" font-size="10" fill="#fb923c">13,207</text>

  <text x="152" y="2240" text-anchor="end" font-size="11" font-weight="500" fill="#94a3b8">Nested overflow</text>
  <rect x="160" y="2212" width="72" height="12" rx="4" fill="#4ade80"/>
  <text x="700" y="2222" text-anchor="end" font-size="10" fill="#4ade80">11,273</text>
  <text x="720" y="2222" text-anchor="middle" font-size="10" fill="#4ade80">◄</text>
  <rect x="160" y="2225" width="105" height="12" rx="4" fill="#f87171"/>
  <text x="700" y="2235" text-anchor="end" font-size="10" fill="#f87171">16,322</text>
  <rect x="160" y="2238" width="88" height="12" rx="4" fill="#60a5fa"/>
  <text x="700" y="2248" text-anchor="end" font-size="10" fill="#60a5fa">13,737</text>
  <rect x="160" y="2251" width="88" height="12" rx="4" fill="#fb923c"/>
  <text x="700" y="2261" text-anchor="end" font-size="10" fill="#fb923c">13,737</text>

  <text x="152" y="2310" text-anchor="end" font-size="11" font-weight="500" fill="#94a3b8">Stroke advanced</text>
  <rect x="160" y="2282" width="59" height="12" rx="4" fill="#4ade80"/>
  <text x="700" y="2292" text-anchor="end" font-size="10" fill="#4ade80">9,287</text>
  <text x="720" y="2292" text-anchor="middle" font-size="10" fill="#4ade80">◄</text>
  <rect x="160" y="2295" width="93" height="12" rx="4" fill="#f87171"/>
  <text x="700" y="2305" text-anchor="end" font-size="10" fill="#f87171">14,507</text>
  <rect x="160" y="2308" width="75" height="12" rx="4" fill="#60a5fa"/>
  <text x="700" y="2318" text-anchor="end" font-size="10" fill="#60a5fa">11,702</text>
  <rect x="160" y="2321" width="78" height="12" rx="4" fill="#fb923c"/>
  <text x="700" y="2331" text-anchor="end" font-size="10" fill="#fb923c">12,246</text>

  <text x="152" y="2380" text-anchor="end" font-size="11" font-weight="500" fill="#94a3b8">Pattern transforms</text>
  <rect x="160" y="2352" width="58" height="12" rx="4" fill="#4ade80"/>
  <text x="700" y="2362" text-anchor="end" font-size="10" fill="#4ade80">9,052</text>
  <text x="720" y="2362" text-anchor="middle" font-size="10" fill="#4ade80">◄</text>
  <rect x="160" y="2365" width="103" height="12" rx="4" fill="#f87171"/>
  <text x="700" y="2375" text-anchor="end" font-size="10" fill="#f87171">16,101</text>
  <rect x="160" y="2378" width="104" height="12" rx="4" fill="#60a5fa"/>
  <text x="700" y="2388" text-anchor="end" font-size="10" fill="#60a5fa">16,273</text>
  <rect x="160" y="2391" width="84" height="12" rx="4" fill="#fb923c"/>
  <text x="700" y="2401" text-anchor="end" font-size="10" fill="#fb923c">13,060</text>

  <text x="152" y="2450" text-anchor="end" font-size="11" font-weight="500" fill="#94a3b8">Gradient advanced</text>
  <rect x="160" y="2422" width="201" height="12" rx="4" fill="#4ade80"/>
  <text x="700" y="2432" text-anchor="end" font-size="10" fill="#4ade80">31,339</text>
  <rect x="160" y="2435" width="229" height="12" rx="4" fill="#f87171"/>
  <text x="700" y="2445" text-anchor="end" font-size="10" fill="#f87171">35,647</text>
  <rect x="160" y="2448" width="225" height="12" rx="4" fill="#60a5fa"/>
  <text x="700" y="2458" text-anchor="end" font-size="10" fill="#60a5fa">35,070</text>
  <rect x="160" y="2461" width="199" height="12" rx="4" fill="#fb923c"/>
  <text x="700" y="2471" text-anchor="end" font-size="10" fill="#fb923c">30,958</text>
  <text x="720" y="2471" text-anchor="middle" font-size="10" fill="#fb923c">◄</text>

  <text x="152" y="2520" text-anchor="end" font-size="11" font-weight="500" fill="#94a3b8">Filter merge offset</text>
  <rect x="160" y="2492" width="60" height="12" rx="4" fill="#4ade80"/>
  <text x="700" y="2502" text-anchor="end" font-size="10" fill="#4ade80">9,348</text>
  <text x="720" y="2502" text-anchor="middle" font-size="10" fill="#4ade80">◄</text>
  <rect x="160" y="2505" width="95" height="12" rx="4" fill="#f87171"/>
  <text x="700" y="2515" text-anchor="end" font-size="10" fill="#f87171">14,868</text>
  <rect x="160" y="2518" width="78" height="12" rx="4" fill="#60a5fa"/>
  <text x="700" y="2528" text-anchor="end" font-size="10" fill="#60a5fa">12,184</text>
  <rect x="160" y="2531" width="91" height="12" rx="4" fill="#fb923c"/>
  <text x="700" y="2541" text-anchor="end" font-size="10" fill="#fb923c">14,167</text>

  <text x="152" y="2590" text-anchor="end" font-size="11" font-weight="500" fill="#94a3b8">Fe color matrix</text>
  <rect x="160" y="2562" width="84" height="12" rx="4" fill="#4ade80"/>
  <text x="700" y="2572" text-anchor="end" font-size="10" fill="#4ade80">13,131</text>
  <rect x="160" y="2575" width="100" height="12" rx="4" fill="#f87171"/>
  <text x="700" y="2585" text-anchor="end" font-size="10" fill="#f87171">15,605</text>
  <rect x="160" y="2588" width="93" height="12" rx="4" fill="#60a5fa"/>
  <text x="700" y="2598" text-anchor="end" font-size="10" fill="#60a5fa">14,503</text>
  <rect x="160" y="2601" width="65" height="12" rx="4" fill="#fb923c"/>
  <text x="700" y="2611" text-anchor="end" font-size="10" fill="#fb923c">10,152</text>
  <text x="720" y="2611" text-anchor="middle" font-size="10" fill="#fb923c">◄</text>

  <text x="152" y="2660" text-anchor="end" font-size="11" font-weight="500" fill="#94a3b8">Fe morphology</text>
  <rect x="160" y="2632" width="63" height="12" rx="4" fill="#4ade80"/>
  <text x="700" y="2642" text-anchor="end" font-size="10" fill="#4ade80">9,850</text>
  <rect x="160" y="2645" width="89" height="12" rx="4" fill="#f87171"/>
  <text x="700" y="2655" text-anchor="end" font-size="10" fill="#f87171">13,914</text>
  <rect x="160" y="2658" width="61" height="12" rx="4" fill="#60a5fa"/>
  <text x="700" y="2668" text-anchor="end" font-size="10" fill="#60a5fa">9,544</text>
  <text x="720" y="2668" text-anchor="middle" font-size="10" fill="#60a5fa">◄</text>
  <rect x="160" y="2671" width="66" height="12" rx="4" fill="#fb923c"/>
  <text x="700" y="2681" text-anchor="end" font-size="10" fill="#fb923c">10,313</text>

  <text x="152" y="2730" text-anchor="end" font-size="11" font-weight="500" fill="#94a3b8">Fe turbulence</text>
  <rect x="160" y="2702" width="500" height="12" rx="4" fill="#4ade80"/>
  <text x="700" y="2712" text-anchor="end" font-size="10" fill="#4ade80">77,590</text>
  <rect x="160" y="2715" width="413" height="12" rx="4" fill="#f87171"/>
  <text x="700" y="2725" text-anchor="end" font-size="10" fill="#f87171">64,097</text>
  <rect x="160" y="2728" width="492" height="12" rx="4" fill="#60a5fa"/>
  <text x="700" y="2738" text-anchor="end" font-size="10" fill="#60a5fa">76,437</text>
  <rect x="160" y="2741" width="60" height="12" rx="4" fill="#fb923c"/>
  <text x="700" y="2751" text-anchor="end" font-size="10" fill="#fb923c">9,368</text>
  <text x="720" y="2751" text-anchor="middle" font-size="10" fill="#fb923c">◄</text>

  <text x="152" y="2800" text-anchor="end" font-size="11" font-weight="500" fill="#94a3b8">Fe displacement map</text>
  <rect x="160" y="2772" width="58" height="12" rx="4" fill="#4ade80"/>
  <text x="700" y="2782" text-anchor="end" font-size="10" fill="#4ade80">9,151</text>
  <text x="720" y="2782" text-anchor="middle" font-size="10" fill="#4ade80">◄</text>
  <rect x="160" y="2785" width="113" height="12" rx="4" fill="#f87171"/>
  <text x="700" y="2795" text-anchor="end" font-size="10" fill="#f87171">17,633</text>
  <rect x="160" y="2798" width="65" height="12" rx="4" fill="#60a5fa"/>
  <text x="700" y="2808" text-anchor="end" font-size="10" fill="#60a5fa">10,208</text>
  <rect x="160" y="2811" width="62" height="12" rx="4" fill="#fb923c"/>
  <text x="700" y="2821" text-anchor="end" font-size="10" fill="#fb923c">9,684</text>

  <text x="152" y="2870" text-anchor="end" font-size="11" font-weight="500" fill="#94a3b8">Fe lighting</text>
  <rect x="160" y="2842" width="78" height="12" rx="4" fill="#4ade80"/>
  <text x="700" y="2852" text-anchor="end" font-size="10" fill="#4ade80">12,213</text>
  <rect x="160" y="2855" width="117" height="12" rx="4" fill="#f87171"/>
  <text x="700" y="2865" text-anchor="end" font-size="10" fill="#f87171">18,277</text>
  <rect x="160" y="2868" width="66" height="12" rx="4" fill="#60a5fa"/>
  <text x="700" y="2878" text-anchor="end" font-size="10" fill="#60a5fa">10,269</text>
  <rect x="160" y="2881" width="58" height="12" rx="4" fill="#fb923c"/>
  <text x="700" y="2891" text-anchor="end" font-size="10" fill="#fb923c">9,002</text>
  <text x="720" y="2891" text-anchor="middle" font-size="10" fill="#fb923c">◄</text>

  <text x="152" y="2940" text-anchor="end" font-size="11" font-weight="500" fill="#94a3b8">Fe convolve matrix</text>
  <rect x="160" y="2912" width="77" height="12" rx="4" fill="#4ade80"/>
  <text x="700" y="2922" text-anchor="end" font-size="10" fill="#4ade80">12,104</text>
  <rect x="160" y="2925" width="44" height="12" rx="4" fill="#f87171"/>
  <text x="700" y="2935" text-anchor="end" font-size="10" fill="#f87171">6,858</text>
  <text x="720" y="2935" text-anchor="middle" font-size="10" fill="#f87171">◄</text>
  <rect x="160" y="2938" width="56" height="12" rx="4" fill="#60a5fa"/>
  <text x="700" y="2948" text-anchor="end" font-size="10" fill="#60a5fa">8,834</text>
  <rect x="160" y="2951" width="58" height="12" rx="4" fill="#fb923c"/>
  <text x="700" y="2961" text-anchor="end" font-size="10" fill="#fb923c">9,043</text>

  <text x="152" y="3010" text-anchor="end" font-size="11" font-weight="500" fill="#94a3b8">Fe component transfer</text>
  <rect x="160" y="2982" width="58" height="12" rx="4" fill="#4ade80"/>
  <text x="700" y="2992" text-anchor="end" font-size="10" fill="#4ade80">9,118</text>
  <text x="720" y="2992" text-anchor="middle" font-size="10" fill="#4ade80">◄</text>
  <rect x="160" y="2995" width="80" height="12" rx="4" fill="#f87171"/>
  <text x="700" y="3005" text-anchor="end" font-size="10" fill="#f87171">12,543</text>
  <rect x="160" y="3008" width="67" height="12" rx="4" fill="#60a5fa"/>
  <text x="700" y="3018" text-anchor="end" font-size="10" fill="#60a5fa">10,463</text>
  <rect x="160" y="3021" width="64" height="12" rx="4" fill="#fb923c"/>
  <text x="700" y="3031" text-anchor="end" font-size="10" fill="#fb923c">9,952</text>

  <text x="152" y="3080" text-anchor="end" font-size="11" font-weight="500" fill="#94a3b8">Css color level 4</text>
  <rect x="160" y="3052" width="104" height="12" rx="4" fill="#4ade80"/>
  <text x="700" y="3062" text-anchor="end" font-size="10" fill="#4ade80">16,214</text>
  <rect x="160" y="3065" width="306" height="12" rx="4" fill="#f87171"/>
  <text x="700" y="3075" text-anchor="end" font-size="10" fill="#f87171">47,602</text>
  <rect x="160" y="3078" width="102" height="12" rx="4" fill="#60a5fa"/>
  <text x="700" y="3088" text-anchor="end" font-size="10" fill="#60a5fa">15,886</text>
  <text x="720" y="3088" text-anchor="middle" font-size="10" fill="#60a5fa">◄</text>

</svg>
