<?xml version="1.0" encoding="UTF-8"?>
<svg xmlns="http://www.w3.org/2000/svg" width="760" height="1234" viewBox="0 0 760 1234">
  <style>
    text { font-family: -apple-system, BlinkMacSystemFont, "Segoe UI", Helvetica, Arial, sans-serif; }
  </style>
  <rect width="760" height="1234" rx="16" fill="#0f172a"/>

  <text x="380" y="40" text-anchor="middle" font-size="20" font-weight="600" font-style="italic" fill="#f1f5f9">PNG Output File Sizes (bytes)</text>
  <text x="380" y="60" text-anchor="middle" font-size="13" font-style="italic" fill="#64748b">lower is better — JairoSVG vs EchoSVG vs CairoSVG</text>

  <rect x="145" y="75" width="12" height="12" rx="3" fill="#4ade80"/>
  <text x="163" y="86" font-size="12" fill="#94a3b8">JairoSVG</text>
  <rect x="280" y="75" width="12" height="12" rx="3" fill="#f87171"/>
  <text x="298" y="86" font-size="12" fill="#94a3b8">EchoSVG</text>
  <rect x="408" y="75" width="12" height="12" rx="3" fill="#fb923c"/>
  <text x="426" y="86" font-size="12" fill="#94a3b8">CairoSVG</text>

  <line x1="30" y1="102" x2="730" y2="102" stroke="#1e293b" stroke-width="1"/>

  <text x="152" y="136" text-anchor="end" font-size="11" font-weight="500" fill="#94a3b8">Basic shapes</text>
  <rect x="160" y="116" width="74" height="12" rx="4" fill="#4ade80"/>
  <text x="722" y="126" text-anchor="end" font-size="10" fill="#4ade80">6,718</text>
  <rect x="160" y="130" width="89" height="12" rx="4" fill="#f87171"/>
  <text x="722" y="140" text-anchor="end" font-size="10" fill="#f87171">8,159</text>
  <rect x="160" y="144" width="98" height="12" rx="4" fill="#fb923c"/>
  <text x="722" y="154" text-anchor="end" font-size="10" fill="#fb923c">8,920</text>

  <text x="152" y="192" text-anchor="end" font-size="11" font-weight="500" fill="#94a3b8">Gradients</text>
  <rect x="160" y="172" width="280" height="12" rx="4" fill="#4ade80"/>
  <text x="722" y="182" text-anchor="end" font-size="10" fill="#4ade80">25,554</text>
  <rect x="160" y="186" width="274" height="12" rx="4" fill="#f87171"/>
  <text x="722" y="196" text-anchor="end" font-size="10" fill="#f87171">25,018</text>
  <rect x="160" y="200" width="259" height="12" rx="4" fill="#fb923c"/>
  <text x="722" y="210" text-anchor="end" font-size="10" fill="#fb923c">23,637</text>

  <text x="152" y="248" text-anchor="end" font-size="11" font-weight="500" fill="#94a3b8">Complex paths</text>
  <rect x="160" y="228" width="139" height="12" rx="4" fill="#4ade80"/>
  <text x="722" y="238" text-anchor="end" font-size="10" fill="#4ade80">12,657</text>
  <rect x="160" y="242" width="185" height="12" rx="4" fill="#f87171"/>
  <text x="722" y="252" text-anchor="end" font-size="10" fill="#f87171">16,936</text>
  <rect x="160" y="256" width="171" height="12" rx="4" fill="#fb923c"/>
  <text x="722" y="266" text-anchor="end" font-size="10" fill="#fb923c">15,633</text>

  <text x="152" y="304" text-anchor="end" font-size="11" font-weight="500" fill="#94a3b8">Text rendering</text>
  <rect x="160" y="284" width="163" height="12" rx="4" fill="#4ade80"/>
  <text x="722" y="294" text-anchor="end" font-size="10" fill="#4ade80">14,872</text>
  <rect x="160" y="298" width="209" height="12" rx="4" fill="#f87171"/>
  <text x="722" y="308" text-anchor="end" font-size="10" fill="#f87171">19,125</text>
  <rect x="160" y="312" width="179" height="12" rx="4" fill="#fb923c"/>
  <text x="722" y="322" text-anchor="end" font-size="10" fill="#fb923c">16,317</text>

  <text x="152" y="360" text-anchor="end" font-size="11" font-weight="500" fill="#94a3b8">Transforms</text>
  <rect x="160" y="340" width="60" height="12" rx="4" fill="#4ade80"/>
  <text x="722" y="350" text-anchor="end" font-size="10" fill="#4ade80">5,461</text>
  <rect x="160" y="354" width="58" height="12" rx="4" fill="#f87171"/>
  <text x="722" y="364" text-anchor="end" font-size="10" fill="#f87171">5,261</text>
  <rect x="160" y="368" width="66" height="12" rx="4" fill="#fb923c"/>
  <text x="722" y="378" text-anchor="end" font-size="10" fill="#fb923c">6,001</text>

  <text x="152" y="416" text-anchor="end" font-size="11" font-weight="500" fill="#94a3b8">Stroke styles</text>
  <rect x="160" y="396" width="37" height="12" rx="4" fill="#4ade80"/>
  <text x="722" y="406" text-anchor="end" font-size="10" fill="#4ade80">3,363</text>
  <rect x="160" y="410" width="55" height="12" rx="4" fill="#f87171"/>
  <text x="722" y="420" text-anchor="end" font-size="10" fill="#f87171">5,038</text>
  <rect x="160" y="424" width="49" height="12" rx="4" fill="#fb923c"/>
  <text x="722" y="434" text-anchor="end" font-size="10" fill="#fb923c">4,478</text>

  <text x="152" y="472" text-anchor="end" font-size="11" font-weight="500" fill="#94a3b8">Opacity blend</text>
  <rect x="160" y="452" width="92" height="12" rx="4" fill="#4ade80"/>
  <text x="722" y="462" text-anchor="end" font-size="10" fill="#4ade80">8,409</text>
  <rect x="160" y="466" width="112" height="12" rx="4" fill="#f87171"/>
  <text x="722" y="476" text-anchor="end" font-size="10" fill="#f87171">10,201</text>
  <rect x="160" y="480" width="108" height="12" rx="4" fill="#fb923c"/>
  <text x="722" y="490" text-anchor="end" font-size="10" fill="#fb923c">9,853</text>

  <text x="152" y="528" text-anchor="end" font-size="11" font-weight="500" fill="#94a3b8">Viewbox aspect</text>
  <rect x="160" y="508" width="127" height="12" rx="4" fill="#4ade80"/>
  <text x="722" y="518" text-anchor="end" font-size="10" fill="#4ade80">11,616</text>
  <rect x="160" y="522" width="140" height="12" rx="4" fill="#f87171"/>
  <text x="722" y="532" text-anchor="end" font-size="10" fill="#f87171">12,769</text>
  <rect x="160" y="536" width="125" height="12" rx="4" fill="#fb923c"/>
  <text x="722" y="546" text-anchor="end" font-size="10" fill="#fb923c">11,444</text>

  <text x="152" y="584" text-anchor="end" font-size="11" font-weight="500" fill="#94a3b8">CSS styling</text>
  <rect x="160" y="564" width="89" height="12" rx="4" fill="#4ade80"/>
  <text x="722" y="574" text-anchor="end" font-size="10" fill="#4ade80">8,153</text>
  <rect x="160" y="578" width="122" height="12" rx="4" fill="#f87171"/>
  <text x="722" y="588" text-anchor="end" font-size="10" fill="#f87171">11,144</text>
  <rect x="160" y="592" width="118" height="12" rx="4" fill="#fb923c"/>
  <text x="722" y="602" text-anchor="end" font-size="10" fill="#fb923c">10,816</text>

  <text x="152" y="640" text-anchor="end" font-size="11" font-weight="500" fill="#94a3b8">Use and defs</text>
  <rect x="160" y="620" width="62" height="12" rx="4" fill="#4ade80"/>
  <text x="722" y="630" text-anchor="end" font-size="10" fill="#4ade80">5,646</text>
  <rect x="160" y="634" width="67" height="12" rx="4" fill="#f87171"/>
  <text x="722" y="644" text-anchor="end" font-size="10" fill="#f87171">6,122</text>
  <rect x="160" y="648" width="106" height="12" rx="4" fill="#fb923c"/>
  <text x="722" y="658" text-anchor="end" font-size="10" fill="#fb923c">9,712</text>

  <text x="152" y="696" text-anchor="end" font-size="11" font-weight="500" fill="#94a3b8">Star polygon</text>
  <rect x="160" y="676" width="68" height="12" rx="4" fill="#4ade80"/>
  <text x="722" y="686" text-anchor="end" font-size="10" fill="#4ade80">6,228</text>
  <rect x="160" y="690" width="97" height="12" rx="4" fill="#f87171"/>
  <text x="722" y="700" text-anchor="end" font-size="10" fill="#f87171">8,862</text>
  <rect x="160" y="704" width="98" height="12" rx="4" fill="#fb923c"/>
  <text x="722" y="714" text-anchor="end" font-size="10" fill="#fb923c">8,911</text>

  <text x="152" y="752" text-anchor="end" font-size="11" font-weight="500" fill="#94a3b8">Nested svg</text>
  <rect x="160" y="732" width="124" height="12" rx="4" fill="#4ade80"/>
  <text x="722" y="742" text-anchor="end" font-size="10" fill="#4ade80">11,322</text>
  <rect x="160" y="746" width="137" height="12" rx="4" fill="#f87171"/>
  <text x="722" y="756" text-anchor="end" font-size="10" fill="#f87171">12,522</text>
  <rect x="160" y="760" width="130" height="12" rx="4" fill="#fb923c"/>
  <text x="722" y="770" text-anchor="end" font-size="10" fill="#fb923c">11,880</text>

  <text x="152" y="808" text-anchor="end" font-size="11" font-weight="500" fill="#94a3b8">Patterns</text>
  <rect x="160" y="788" width="105" height="12" rx="4" fill="#4ade80"/>
  <text x="722" y="798" text-anchor="end" font-size="10" fill="#4ade80">9,598</text>
  <rect x="160" y="802" width="130" height="12" rx="4" fill="#f87171"/>
  <text x="722" y="812" text-anchor="end" font-size="10" fill="#f87171">11,832</text>
  <rect x="160" y="816" width="121" height="12" rx="4" fill="#fb923c"/>
  <text x="722" y="826" text-anchor="end" font-size="10" fill="#fb923c">11,095</text>

  <text x="152" y="864" text-anchor="end" font-size="11" font-weight="500" fill="#94a3b8">Clip paths</text>
  <rect x="160" y="844" width="102" height="12" rx="4" fill="#4ade80"/>
  <text x="722" y="854" text-anchor="end" font-size="10" fill="#4ade80">9,361</text>
  <rect x="160" y="858" width="116" height="12" rx="4" fill="#f87171"/>
  <text x="722" y="868" text-anchor="end" font-size="10" fill="#f87171">10,558</text>
  <rect x="160" y="872" width="148" height="12" rx="4" fill="#fb923c"/>
  <text x="722" y="882" text-anchor="end" font-size="10" fill="#fb923c">13,552</text>

  <text x="152" y="920" text-anchor="end" font-size="11" font-weight="500" fill="#94a3b8">Masks ⚠️</text>
  <rect x="160" y="900" width="16" height="12" rx="4" fill="#4ade80"/>
  <text x="722" y="910" text-anchor="end" font-size="10" fill="#4ade80">1,458</text>
  <rect x="160" y="914" width="61" height="12" rx="4" fill="#f87171"/>
  <text x="722" y="924" text-anchor="end" font-size="10" fill="#f87171">5,566</text>
  <rect x="160" y="928" width="13" height="12" rx="4" fill="#fb923c"/>
  <text x="722" y="938" text-anchor="end" font-size="10" fill="#fb923c">1,161</text>

  <text x="152" y="976" text-anchor="end" font-size="11" font-weight="500" fill="#94a3b8">Markers</text>
  <rect x="160" y="956" width="69" height="12" rx="4" fill="#4ade80"/>
  <text x="722" y="966" text-anchor="end" font-size="10" fill="#4ade80">6,334</text>
  <rect x="160" y="970" width="89" height="12" rx="4" fill="#f87171"/>
  <text x="722" y="980" text-anchor="end" font-size="10" fill="#f87171">8,117</text>
  <rect x="160" y="984" width="92" height="12" rx="4" fill="#fb923c"/>
  <text x="722" y="994" text-anchor="end" font-size="10" fill="#fb923c">8,378</text>

  <text x="152" y="1032" text-anchor="end" font-size="11" font-weight="500" fill="#94a3b8">Filters ⚠️</text>
  <rect x="160" y="1012" width="340" height="12" rx="4" fill="#4ade80"/>
  <text x="722" y="1022" text-anchor="end" font-size="10" fill="#4ade80">31,059</text>
  <rect x="160" y="1026" width="263" height="12" rx="4" fill="#f87171"/>
  <text x="722" y="1036" text-anchor="end" font-size="10" fill="#f87171">24,063</text>
  <rect x="160" y="1040" width="93" height="12" rx="4" fill="#fb923c"/>
  <text x="722" y="1050" text-anchor="end" font-size="10" fill="#fb923c">8,520</text>

  <text x="152" y="1088" text-anchor="end" font-size="11" font-weight="500" fill="#94a3b8">Embedded image</text>
  <rect x="160" y="1068" width="109" height="12" rx="4" fill="#4ade80"/>
  <text x="722" y="1078" text-anchor="end" font-size="10" fill="#4ade80">9,995</text>
  <rect x="160" y="1082" width="131" height="12" rx="4" fill="#f87171"/>
  <text x="722" y="1092" text-anchor="end" font-size="10" fill="#f87171">11,994</text>
  <rect x="160" y="1096" width="232" height="12" rx="4" fill="#fb923c"/>
  <text x="722" y="1106" text-anchor="end" font-size="10" fill="#fb923c">21,228</text>

  <text x="152" y="1144" text-anchor="end" font-size="11" font-weight="500" fill="#94a3b8">Text advanced</text>
  <rect x="160" y="1124" width="219" height="12" rx="4" fill="#4ade80"/>
  <text x="722" y="1134" text-anchor="end" font-size="10" fill="#4ade80">20,003</text>
  <rect x="160" y="1138" width="287" height="12" rx="4" fill="#f87171"/>
  <text x="722" y="1148" text-anchor="end" font-size="10" fill="#f87171">26,256</text>
  <rect x="160" y="1152" width="261" height="12" rx="4" fill="#fb923c"/>
  <text x="722" y="1162" text-anchor="end" font-size="10" fill="#fb923c">23,864</text>

  <line x1="30" y1="1178" x2="730" y2="1178" stroke="#1e293b" stroke-width="1"/>
  <text x="152" y="1200" text-anchor="end" font-size="13" font-weight="700" fill="#f1f5f9">Total</text>
  <text x="160" y="1200" font-size="13" font-weight="600" fill="#4ade80">207,807</text>
  <text x="240" y="1200" font-size="13" font-weight="600" fill="#f87171">239,543</text>
  <text x="320" y="1200" font-size="13" font-weight="600" fill="#fb923c">225,400</text>

</svg>
