<?xml version="1.0" encoding="UTF-8"?>
<svg xmlns="http://www.w3.org/2000/svg" width="760" height="1194" viewBox="0 0 760 1194">
  <style>
    text { font-family: -apple-system, BlinkMacSystemFont, "Segoe UI", Helvetica, Arial, sans-serif; }
  </style>
  <rect width="760" height="1194" rx="16" fill="#0f172a"/>

  <text x="380" y="40" text-anchor="middle" font-size="20" font-weight="600" font-style="italic" fill="#f1f5f9">PNG Output File Sizes (bytes)</text>
  <text x="380" y="60" text-anchor="middle" font-size="13" font-style="italic" fill="#64748b">lower is better — JairoSVG vs EchoSVG vs CairoSVG</text>

  <rect x="145" y="75" width="12" height="12" rx="3" fill="#4ade80"/>
  <text x="163" y="86" font-size="12" fill="#94a3b8">JairoSVG (Java)</text>
  <rect x="300" y="75" width="12" height="12" rx="3" fill="#f87171"/>
  <text x="318" y="86" font-size="12" fill="#94a3b8">EchoSVG (Java)</text>
  <rect x="472" y="75" width="12" height="12" rx="3" fill="#fb923c"/>
  <text x="490" y="86" font-size="12" fill="#94a3b8">CairoSVG (Python)</text>

  <line x1="30" y1="102" x2="730" y2="102" stroke="#1e293b" stroke-width="1"/>

  <text x="152" y="136" text-anchor="end" font-size="11" font-weight="500" fill="#94a3b8">Basic shapes</text>
  <rect x="160" y="116" width="67" height="12" rx="4" fill="#4ade80"/>
  <text x="700" y="126" text-anchor="end" font-size="10" fill="#4ade80">6,718</text>
  <text x="720" y="126" text-anchor="middle" font-size="10" fill="#4ade80">◀</text>
  <rect x="160" y="130" width="81" height="12" rx="4" fill="#f87171"/>
  <text x="700" y="140" text-anchor="end" font-size="10" fill="#f87171">8,159</text>
  <rect x="160" y="144" width="89" height="12" rx="4" fill="#fb923c"/>
  <text x="700" y="154" text-anchor="end" font-size="10" fill="#fb923c">8,920</text>

  <text x="152" y="192" text-anchor="end" font-size="11" font-weight="500" fill="#94a3b8">Gradients</text>
  <rect x="160" y="172" width="255" height="12" rx="4" fill="#4ade80"/>
  <text x="700" y="182" text-anchor="end" font-size="10" fill="#4ade80">25,554</text>
  <rect x="160" y="186" width="250" height="12" rx="4" fill="#f87171"/>
  <text x="700" y="196" text-anchor="end" font-size="10" fill="#f87171">25,018</text>
  <rect x="160" y="200" width="236" height="12" rx="4" fill="#fb923c"/>
  <text x="700" y="210" text-anchor="end" font-size="10" fill="#fb923c">23,637</text>
  <text x="720" y="210" text-anchor="middle" font-size="10" fill="#fb923c">◀</text>

  <text x="152" y="248" text-anchor="end" font-size="11" font-weight="500" fill="#94a3b8">Complex paths</text>
  <rect x="160" y="228" width="126" height="12" rx="4" fill="#4ade80"/>
  <text x="700" y="238" text-anchor="end" font-size="10" fill="#4ade80">12,657</text>
  <text x="720" y="238" text-anchor="middle" font-size="10" fill="#4ade80">◀</text>
  <rect x="160" y="242" width="169" height="12" rx="4" fill="#f87171"/>
  <text x="700" y="252" text-anchor="end" font-size="10" fill="#f87171">16,936</text>
  <rect x="160" y="256" width="156" height="12" rx="4" fill="#fb923c"/>
  <text x="700" y="266" text-anchor="end" font-size="10" fill="#fb923c">15,633</text>

  <text x="152" y="304" text-anchor="end" font-size="11" font-weight="500" fill="#94a3b8">Text rendering</text>
  <rect x="160" y="284" width="148" height="12" rx="4" fill="#4ade80"/>
  <text x="700" y="294" text-anchor="end" font-size="10" fill="#4ade80">14,872</text>
  <text x="720" y="294" text-anchor="middle" font-size="10" fill="#4ade80">◀</text>
  <rect x="160" y="298" width="191" height="12" rx="4" fill="#f87171"/>
  <text x="700" y="308" text-anchor="end" font-size="10" fill="#f87171">19,125</text>
  <rect x="160" y="312" width="163" height="12" rx="4" fill="#fb923c"/>
  <text x="700" y="322" text-anchor="end" font-size="10" fill="#fb923c">16,317</text>

  <text x="152" y="360" text-anchor="end" font-size="11" font-weight="500" fill="#94a3b8">Transforms</text>
  <rect x="160" y="340" width="55" height="12" rx="4" fill="#4ade80"/>
  <text x="700" y="350" text-anchor="end" font-size="10" fill="#4ade80">5,461</text>
  <rect x="160" y="354" width="53" height="12" rx="4" fill="#f87171"/>
  <text x="700" y="364" text-anchor="end" font-size="10" fill="#f87171">5,261</text>
  <text x="720" y="364" text-anchor="middle" font-size="10" fill="#f87171">◀</text>
  <rect x="160" y="368" width="60" height="12" rx="4" fill="#fb923c"/>
  <text x="700" y="378" text-anchor="end" font-size="10" fill="#fb923c">6,001</text>

  <text x="152" y="416" text-anchor="end" font-size="11" font-weight="500" fill="#94a3b8">Stroke styles</text>
  <rect x="160" y="396" width="34" height="12" rx="4" fill="#4ade80"/>
  <text x="700" y="406" text-anchor="end" font-size="10" fill="#4ade80">3,363</text>
  <text x="720" y="406" text-anchor="middle" font-size="10" fill="#4ade80">◀</text>
  <rect x="160" y="410" width="50" height="12" rx="4" fill="#f87171"/>
  <text x="700" y="420" text-anchor="end" font-size="10" fill="#f87171">5,038</text>
  <rect x="160" y="424" width="45" height="12" rx="4" fill="#fb923c"/>
  <text x="700" y="434" text-anchor="end" font-size="10" fill="#fb923c">4,478</text>

  <text x="152" y="472" text-anchor="end" font-size="11" font-weight="500" fill="#94a3b8">Opacity blend</text>
  <rect x="160" y="452" width="84" height="12" rx="4" fill="#4ade80"/>
  <text x="700" y="462" text-anchor="end" font-size="10" fill="#4ade80">8,409</text>
  <text x="720" y="462" text-anchor="middle" font-size="10" fill="#4ade80">◀</text>
  <rect x="160" y="466" width="102" height="12" rx="4" fill="#f87171"/>
  <text x="700" y="476" text-anchor="end" font-size="10" fill="#f87171">10,201</text>
  <rect x="160" y="480" width="98" height="12" rx="4" fill="#fb923c"/>
  <text x="700" y="490" text-anchor="end" font-size="10" fill="#fb923c">9,853</text>

  <text x="152" y="528" text-anchor="end" font-size="11" font-weight="500" fill="#94a3b8">Viewbox aspect</text>
  <rect x="160" y="508" width="116" height="12" rx="4" fill="#4ade80"/>
  <text x="700" y="518" text-anchor="end" font-size="10" fill="#4ade80">11,616</text>
  <rect x="160" y="522" width="127" height="12" rx="4" fill="#f87171"/>
  <text x="700" y="532" text-anchor="end" font-size="10" fill="#f87171">12,769</text>
  <rect x="160" y="536" width="114" height="12" rx="4" fill="#fb923c"/>
  <text x="700" y="546" text-anchor="end" font-size="10" fill="#fb923c">11,444</text>
  <text x="720" y="546" text-anchor="middle" font-size="10" fill="#fb923c">◀</text>

  <text x="152" y="584" text-anchor="end" font-size="11" font-weight="500" fill="#94a3b8">CSS styling</text>
  <rect x="160" y="564" width="81" height="12" rx="4" fill="#4ade80"/>
  <text x="700" y="574" text-anchor="end" font-size="10" fill="#4ade80">8,153</text>
  <text x="720" y="574" text-anchor="middle" font-size="10" fill="#4ade80">◀</text>
  <rect x="160" y="578" width="111" height="12" rx="4" fill="#f87171"/>
  <text x="700" y="588" text-anchor="end" font-size="10" fill="#f87171">11,144</text>
  <rect x="160" y="592" width="108" height="12" rx="4" fill="#fb923c"/>
  <text x="700" y="602" text-anchor="end" font-size="10" fill="#fb923c">10,816</text>

  <text x="152" y="640" text-anchor="end" font-size="11" font-weight="500" fill="#94a3b8">Use and defs</text>
  <rect x="160" y="620" width="56" height="12" rx="4" fill="#4ade80"/>
  <text x="700" y="630" text-anchor="end" font-size="10" fill="#4ade80">5,646</text>
  <text x="720" y="630" text-anchor="middle" font-size="10" fill="#4ade80">◀</text>
  <rect x="160" y="634" width="61" height="12" rx="4" fill="#f87171"/>
  <text x="700" y="644" text-anchor="end" font-size="10" fill="#f87171">6,122</text>
  <rect x="160" y="648" width="97" height="12" rx="4" fill="#fb923c"/>
  <text x="700" y="658" text-anchor="end" font-size="10" fill="#fb923c">9,712</text>

  <text x="152" y="696" text-anchor="end" font-size="11" font-weight="500" fill="#94a3b8">Star polygon</text>
  <rect x="160" y="676" width="62" height="12" rx="4" fill="#4ade80"/>
  <text x="700" y="686" text-anchor="end" font-size="10" fill="#4ade80">6,228</text>
  <text x="720" y="686" text-anchor="middle" font-size="10" fill="#4ade80">◀</text>
  <rect x="160" y="690" width="88" height="12" rx="4" fill="#f87171"/>
  <text x="700" y="700" text-anchor="end" font-size="10" fill="#f87171">8,862</text>
  <rect x="160" y="704" width="89" height="12" rx="4" fill="#fb923c"/>
  <text x="700" y="714" text-anchor="end" font-size="10" fill="#fb923c">8,911</text>

  <text x="152" y="752" text-anchor="end" font-size="11" font-weight="500" fill="#94a3b8">Nested svg</text>
  <rect x="160" y="732" width="113" height="12" rx="4" fill="#4ade80"/>
  <text x="700" y="742" text-anchor="end" font-size="10" fill="#4ade80">11,322</text>
  <text x="720" y="742" text-anchor="middle" font-size="10" fill="#4ade80">◀</text>
  <rect x="160" y="746" width="125" height="12" rx="4" fill="#f87171"/>
  <text x="700" y="756" text-anchor="end" font-size="10" fill="#f87171">12,522</text>
  <rect x="160" y="760" width="119" height="12" rx="4" fill="#fb923c"/>
  <text x="700" y="770" text-anchor="end" font-size="10" fill="#fb923c">11,880</text>

  <text x="152" y="808" text-anchor="end" font-size="11" font-weight="500" fill="#94a3b8">Patterns</text>
  <rect x="160" y="788" width="96" height="12" rx="4" fill="#4ade80"/>
  <text x="700" y="798" text-anchor="end" font-size="10" fill="#4ade80">9,598</text>
  <text x="720" y="798" text-anchor="middle" font-size="10" fill="#4ade80">◀</text>
  <rect x="160" y="802" width="118" height="12" rx="4" fill="#f87171"/>
  <text x="700" y="812" text-anchor="end" font-size="10" fill="#f87171">11,832</text>
  <rect x="160" y="816" width="111" height="12" rx="4" fill="#fb923c"/>
  <text x="700" y="826" text-anchor="end" font-size="10" fill="#fb923c">11,095</text>

  <text x="152" y="864" text-anchor="end" font-size="11" font-weight="500" fill="#94a3b8">Clip paths</text>
  <rect x="160" y="844" width="93" height="12" rx="4" fill="#4ade80"/>
  <text x="700" y="854" text-anchor="end" font-size="10" fill="#4ade80">9,361</text>
  <text x="720" y="854" text-anchor="middle" font-size="10" fill="#4ade80">◀</text>
  <rect x="160" y="858" width="105" height="12" rx="4" fill="#f87171"/>
  <text x="700" y="868" text-anchor="end" font-size="10" fill="#f87171">10,558</text>
  <rect x="160" y="872" width="135" height="12" rx="4" fill="#fb923c"/>
  <text x="700" y="882" text-anchor="end" font-size="10" fill="#fb923c">13,552</text>

  <text x="152" y="920" text-anchor="end" font-size="11" font-weight="500" fill="#94a3b8">Masks ⚠️</text>
  <rect x="160" y="900" width="15" height="12" rx="4" fill="#4ade80"/>
  <text x="700" y="910" text-anchor="end" font-size="10" fill="#4ade80">1,458</text>
  <rect x="160" y="914" width="56" height="12" rx="4" fill="#f87171"/>
  <text x="700" y="924" text-anchor="end" font-size="10" fill="#f87171">5,566</text>
  <rect x="160" y="928" width="12" height="12" rx="4" fill="#fb923c"/>
  <text x="700" y="938" text-anchor="end" font-size="10" fill="#fb923c">1,161</text>
  <text x="720" y="938" text-anchor="middle" font-size="10" fill="#fb923c">◀</text>

  <text x="152" y="976" text-anchor="end" font-size="11" font-weight="500" fill="#94a3b8">Markers</text>
  <rect x="160" y="956" width="63" height="12" rx="4" fill="#4ade80"/>
  <text x="700" y="966" text-anchor="end" font-size="10" fill="#4ade80">6,334</text>
  <text x="720" y="966" text-anchor="middle" font-size="10" fill="#4ade80">◀</text>
  <rect x="160" y="970" width="81" height="12" rx="4" fill="#f87171"/>
  <text x="700" y="980" text-anchor="end" font-size="10" fill="#f87171">8,117</text>
  <rect x="160" y="984" width="84" height="12" rx="4" fill="#fb923c"/>
  <text x="700" y="994" text-anchor="end" font-size="10" fill="#fb923c">8,378</text>

  <text x="152" y="1032" text-anchor="end" font-size="11" font-weight="500" fill="#94a3b8">Filters ⚠️</text>
  <rect x="160" y="1012" width="310" height="12" rx="4" fill="#4ade80"/>
  <text x="700" y="1022" text-anchor="end" font-size="10" fill="#4ade80">31,059</text>
  <rect x="160" y="1026" width="240" height="12" rx="4" fill="#f87171"/>
  <text x="700" y="1036" text-anchor="end" font-size="10" fill="#f87171">24,063</text>
  <rect x="160" y="1040" width="85" height="12" rx="4" fill="#fb923c"/>
  <text x="700" y="1050" text-anchor="end" font-size="10" fill="#fb923c">8,520</text>
  <text x="720" y="1050" text-anchor="middle" font-size="10" fill="#fb923c">◀</text>

  <text x="152" y="1088" text-anchor="end" font-size="11" font-weight="500" fill="#94a3b8">Embedded image</text>
  <rect x="160" y="1068" width="100" height="12" rx="4" fill="#4ade80"/>
  <text x="700" y="1078" text-anchor="end" font-size="10" fill="#4ade80">9,995</text>
  <text x="720" y="1078" text-anchor="middle" font-size="10" fill="#4ade80">◀</text>
  <rect x="160" y="1082" width="120" height="12" rx="4" fill="#f87171"/>
  <text x="700" y="1092" text-anchor="end" font-size="10" fill="#f87171">11,994</text>
  <rect x="160" y="1096" width="212" height="12" rx="4" fill="#fb923c"/>
  <text x="700" y="1106" text-anchor="end" font-size="10" fill="#fb923c">21,228</text>

  <text x="152" y="1144" text-anchor="end" font-size="11" font-weight="500" fill="#94a3b8">Text advanced</text>
  <rect x="160" y="1124" width="200" height="12" rx="4" fill="#4ade80"/>
  <text x="700" y="1134" text-anchor="end" font-size="10" fill="#4ade80">20,003</text>
  <text x="720" y="1134" text-anchor="middle" font-size="10" fill="#4ade80">◀</text>
  <rect x="160" y="1138" width="262" height="12" rx="4" fill="#f87171"/>
  <text x="700" y="1148" text-anchor="end" font-size="10" fill="#f87171">26,256</text>
  <rect x="160" y="1152" width="238" height="12" rx="4" fill="#fb923c"/>
  <text x="700" y="1162" text-anchor="end" font-size="10" fill="#fb923c">23,864</text>

</svg>
